PathFileType	4	(X/Y/Z)	E:\Qualisys_Data\Carbon_Farble_Plate\Data\Amateur_Runner\S14\T2\S14T2V12_c3d.trc
DataRate	CameraRate	NumFrames	NumMarkers	Units	OrigDataRate	OrigDataStartFrame	OrigNumFrames
200.000000	200.000000	4	39	mm	200.000000	284	325
Frame#	Time	LSHO			RSHO			LICST			RICST			LASIS			LHEEL			RASIS			LTROC			RTROC			SACR			LTH1			LSK4			LTH2			LTH3			RHM5			LSK2			LTH4			RTH1			LTOE			RTH2			RTH3			RTH4			LLEP			RLEP			LSK1			LSK3			RSK1			LHM5			RSK2			LFT1			RSK3			RSK4			LLME			RLME			RTOE			RHEEL			RFT1			RFT2			LFT2			
		X1	Y1	Z1	X2	Y2	Z2	X3	Y3	Z3	X4	Y4	Z4	X5	Y5	Z5	X6	Y6	Z6	X7	Y7	Z7	X8	Y8	Z8	X9	Y9	Z9	X10	Y10	Z10	X11	Y11	Z11	X12	Y12	Z12	X13	Y13	Z13	X14	Y14	Z14	X15	Y15	Z15	X16	Y16	Z16	X17	Y17	Z17	X18	Y18	Z18	X19	Y19	Z19	X20	Y20	Z20	X21	Y21	Z21	X22	Y22	Z22	X23	Y23	Z23	X24	Y24	Z24	X25	Y25	Z25	X26	Y26	Z26	X27	Y27	Z27	X28	Y28	Z28	X29	Y29	Z29	X30	Y30	Z30	X31	Y31	Z31	X32	Y32	Z32	X33	Y33	Z33	X34	Y34	Z34	X35	Y35	Z35	X36	Y36	Z36	X37	Y37	Z37	X38	Y38	Z38	X39	Y39	Z39	

285	1.42	1807.412231445312	1421.577392578125	-551.87841796875	1775.27587890625	1429.795166015625	-250.6326599121094	1752.707763671875	976.9949340820312	-525.4618530273438	1781.501342773438	981.0082397460938	-248.5225677490234	1797.13427734375	928.2678833007812	-504.5927124023438	1380.53564453125	145.8815002441406	-390.6075744628906	1809.344848632812	940.2868041992188	-269.9369506835938	1657.665405273438	860.4261474609375	-537.3963012695312	1687.552368164062	852.2542724609375	-208.2854766845703	1622.691650390625	965.1591796875	-415.0318603515625	1704.304321289062	631.1019287109375	-537.591552734375	1508.073974609375	321.4900512695312	-481.0250244140625	1630.251098632812	638.8055419921875	-513.3303833007812	1705.944213867188	533.5694580078125	-513.8242797851562	1701.070068359375	110.989616394043	-234.8002014160156	1561.917846679688	402.0421142578125	-502.9149169921875	1628.203735351562	541.7974853515625	-494.0453796386719	1900.403076171875	693.843017578125	-221.0836334228516	1600.162963867188	45.80210494995117	-443.8541259765625	1830.259887695312	662.5457763671875	-206.0289459228516	1941.695922851562	604.9188842773438	-246.2406921386719	1867.572998046875	569.7257080078125	-224.8111267089844	1651.259155273438	466.8419799804688	-503.6645812988281	1909.9951171875	516.7990112304688	-231.8937835693359	1631.350830078125	356.1114196777344	-501.21142578125	1573.677368164062	273.8163452148438	-482.9739990234375	1862.249755859375	411.2203063964844	-234.6230773925781	1525.945556640625	46.45650863647461	-500.3509216308594	1795.162963867188	464.1314086914062	-234.3568115234375	1382.356201171875	115.832893371582	-368.217529296875	1792.681884765625	335.0728454589844	-249.6132965087891	1735.726684570312	389.1329956054688	-247.1224670410156	1441.514892578125	152.0821533203125	-458.0295104980469	1648.22021484375	237.9348449707031	-267.4974060058594	1771.572875976562	69.04396057128906	-291.8351135253906	1589.060424804688	253.7616424560547	-325.1700134277344	1581.218994140625	220.6825408935547	-351.6937866210938	1569.340698242188	232.9281463623047	-298.9385375976562	1366.839477539062	115.5020599365234	-421.0616455078125
286	1.425	1824.005004882812	1426.768188476562	-550.297119140625	1787.328979492188	1434.265747070312	-249.800537109375	1769.3701171875	981.1806030273438	-524.996337890625	1796.24609375	986.39990234375	-248.3826293945312	1813.121337890625	932.3716430664062	-503.9790954589844	1387.062744140625	153.6298065185547	-391.9907836914062	1824.317993164062	945.5184326171876	-269.4552307128906	1672.678833007812	865.262939453125	-537.5796508789062	1703.259033203125	857.39501953125	-208.0115509033203	1638.574340820312	969.4933471679688	-415.3365783691406	1715.45556640625	635.2271118164062	-537.5059814453125	1514.372192382812	327.8929443359375	-482.2434387207031	1641.54296875	644.22607421875	-513.4566650390625	1715.664794921875	538.1209106445312	-514.5486450195312	1734.15966796875	107.7662963867188	-235.7444305419922	1569.103881835938	408.3135986328125	-503.9570922851562	1637.957763671875	547.4113159179688	-494.3542175292969	1916.788940429688	698.7950439453125	-221.4493408203125	1601.605590820312	45.41512298583984	-444.9844970703125	1846.9228515625	667.3173217773438	-206.6063842773438	1958.217895507812	610.287109375	-247.2683258056641	1884.391357421875	574.5728149414062	-225.6095123291016	1659.334350585938	472.5608215332031	-504.9480285644531	1926.924682617188	522.1046142578125	-233.1830291748047	1638.015747070312	361.8558959960938	-502.6068725585938	1580.688842773438	279.8433227539062	-484.9567260742188	1882.533935546875	413.3997192382812	-235.6128845214844	1527.600341796875	46.89210891723633	-501.0816650390625	1813.710205078125	464.0771484375	-235.3968811035156	1387.976440429688	123.9801330566406	-370.0077209472656	1816.221801757812	334.9471740722656	-250.2471923828125	1757.019897460938	386.9952087402344	-247.8299407958984	1447.330322265625	158.1203002929688	-459.7146606445312	1676.12548828125	231.9209442138672	-267.8567810058594	1806.69189453125	68.88086700439453	-292.020263671875	1616.101196289062	245.09814453125	-326.1387329101562	1610.521850585938	211.1746826171875	-353.5572204589844	1597.605834960938	222.9388427734375	-300.805908203125	1371.9921875	123.76416015625	-422.1766052246094
287	1.43	1840.711669921875	1432.044799804688	-548.4928588867188	1799.96875	1438.324462890625	-249.0756683349609	1785.98828125	985.1799926757812	-524.913818359375	1811.7236328125	991.2459106445312	-248.2981109619141	1829.439697265625	936.484619140625	-503.3366394042969	1393.893188476562	161.9967956542969	-394.1282348632812	1840.031494140625	950.3724975585938	-269.1961364746094	1688.118774414062	870.009765625	-537.3560791015625	1719.211181640625	862.1243286132812	-207.4221954345703	1654.947998046875	973.9275512695312	-416.2283325195312	1726.918823242188	640.0517578125	-538.73486328125	1521.303955078125	334.5364685058594	-483.6539001464844	1653.20166015625	649.924560546875	-513.3145751953125	1725.568725585938	542.77734375	-515.6527709960938	1766.943603515625	104.3333129882812	-236.1004638671875	1576.317504882812	414.4241638183594	-505.0423889160156	1647.537963867188	553.2186889648438	-495.3752746582031	1933.26416015625	704.0722045898438	-222.0633392333984	1603.48095703125	44.84174728393555	-446.531494140625	1863.268676757812	672.245849609375	-206.8234100341797	1974.47119140625	615.3018798828125	-248.3159332275391	1900.763305664062	579.6610717773438	-226.4250335693359	1667.197021484375	477.7053527832031	-505.9223937988281	1943.827758789062	526.5833129882812	-234.1941986083984	1645.021240234375	367.5930480957031	-504.289794921875	1585.895751953125	285.8499755859375	-487.1871337890625	1902.600952148438	416.2723999023438	-236.4157867431641	1529.525390625	47.63473129272461	-502.1201477050781	1831.618774414062	463.6607666015625	-236.068359375	1394.3251953125	132.4909973144531	-370.8338623046875	1839.883911132812	335.1267395019531	-250.8338317871094	1778.307006835938	383.97607421875	-249.1873016357422	1453.82470703125	163.8547210693359	-461.7514038085938	1703.7724609375	225.8616790771484	-269.0648803710938	1841.607543945312	68.76801300048828	-292.4364013671875	1644.031860351562	235.8907470703125	-327.7740783691406	1639.965454101562	202.1056671142578	-355.0703735351562	1625.86376953125	213.5696105957031	-301.866455078125	1377.995361328125	131.952880859375	-423.2597961425781
288	1.435	1856.817016601562	1436.860595703125	-546.9891967773438	1812.89404296875	1442.267456054688	-248.5427551269531	1802.55810546875	989.3792114257812	-524.2025756835938	1826.295043945312	996.2574462890624	-248.2248382568359	1845.41015625	940.5536499023438	-502.5842895507812	1401.492431640625	170.4967651367188	-396.1310424804688	1855.131103515625	955.4315185546876	-268.6273498535156	1703.446166992188	874.913330078125	-536.8407592773438	1734.96240234375	867.1400756835938	-206.6149139404297	1670.699462890625	978.61572265625	-417.3647766113281	1738.402221679688	644.5189819335938	-539.2799682617188	1528.547729492188	341.0252380371094	-484.80126953125	1665.17236328125	656.1068115234375	-513.7265014648438	1735.327758789062	547.14306640625	-516.9031372070312	1800.470947265625	101.6292190551758	-236.7371673583984	1584.385620117188	420.4727172851562	-506.1572570800781	1658.049682617188	558.6144409179688	-496.0148315429688	1949.492797851562	708.5684814453125	-222.506591796875	1606.3017578125	44.47482681274414	-448.5202331542969	1879.681640625	677.1567993164062	-207.1334228515625	1990.923950195312	620.5121459960938	-249.1104278564453	1916.8828125	584.3355102539062	-227.0316162109375	1675.520263671875	483.5439758300781	-507.4626770019531	1960.193969726562	531.345703125	-234.8155822753906	1652.421997070312	373.5608215332031	-506.1805725097656	1593.010864257812	292.0131530761719	-489.7235107421875	1922.872924804688	418.512451171875	-237.0579071044922	1531.8125	48.69256973266602	-503.1614685058594	1849.711669921875	462.9889831542969	-236.98388671875	1401.081176757812	141.5850067138672	-371.8693237304688	1863.489501953125	335.0360717773438	-251.6217651367188	1799.55615234375	381.1724853515625	-249.9654388427734	1460.814453125	169.6949462890625	-463.6641235351562	1731.598999023438	220.1104278564453	-269.625732421875	1876.600219726562	69.0348892211914	-292.9666748046875	1671.543823242188	227.4725494384766	-327.9556274414062	1669.345825195312	193.2629547119141	-355.9639587402344	1654.477783203125	203.9679412841797	-302.9383239746094	1384.419677734375	140.9112396240234	-424.9991760253906
